<svg xmlns="http://www.w3.org/2000/svg" xmlns:xlink="http://www.w3.org/1999/xlink" version="1.1"
    width="1080" height="1080" viewBox="0 0 1080 1080" xml:space="preserve">
<desc>Created with Fabric.js 5.2.4</desc>
<defs>
</defs>
<g transform="matrix(1 0 0 1 540 540)" id="bf8cdb12-b9e4-4476-a03b-f62988f49f8a"  >
<rect style="stroke: none; stroke-width: 1; stroke-dasharray: none; stroke-linecap: butt; stroke-dashoffset: 0; stroke-linejoin: miter; stroke-miterlimit: 4; fill: rgb(255,255,255); fill-rule: nonzero; opacity: 1; visibility: hidden;" vector-effect="non-scaling-stroke"  x="-540" y="-540" rx="0" ry="0" width="1080" height="1080" />
</g>
<g transform="matrix(1 0 0 1 540 540)" id="9ca7aeb7-df04-4236-ae34-53dd997db2d2"  >
</g>
<g transform="matrix(NaN NaN NaN NaN 0 0)"  >
<path style="stroke: none; stroke-width: 1; stroke-dasharray: none; stroke-linecap: butt; stroke-dashoffset: 0; stroke-linejoin: miter; stroke-miterlimit: 4; fill: rgb(0,0,0); fill-rule: nonzero; opacity: 1;"  transform=" translate(-9.58, -10)" d="M 7.75 14.833 Q 7.021 14.833 6.51 14.323 Q 6 13.812 6 13.083 L 6 3.417 Q 6 2.688 6.51 2.177 Q 7.021 1.667 7.75 1.667 L 14.917 1.667 Q 15.646 1.667 16.156 2.177 Q 16.667 2.688 16.667 3.417 L 16.667 13.083 Q 16.667 13.812 16.156 14.323 Q 15.646 14.833 14.917 14.833 Z M 7.75 13.083 L 14.917 13.083 Q 14.917 13.083 14.917 13.083 Q 14.917 13.083 14.917 13.083 L 14.917 3.417 Q 14.917 3.417 14.917 3.417 Q 14.917 3.417 14.917 3.417 L 7.75 3.417 Q 7.75 3.417 7.75 3.417 Q 7.75 3.417 7.75 3.417 L 7.75 13.083 Q 7.75 13.083 7.75 13.083 Q 7.75 13.083 7.75 13.083 Z M 4.25 18.333 Q 3.521 18.333 3.01 17.823 Q 2.5 17.312 2.5 16.583 L 2.5 5.062 L 4.25 5.062 L 4.25 16.583 Q 4.25 16.583 4.25 16.583 Q 4.25 16.583 4.25 16.583 L 13.271 16.583 L 13.271 18.333 Z M 7.75 3.417 Q 7.75 3.417 7.75 3.417 Q 7.75 3.417 7.75 3.417 L 7.75 13.083 Q 7.75 13.083 7.75 13.083 Q 7.75 13.083 7.75 13.083 Q 7.75 13.083 7.75 13.083 Q 7.75 13.083 7.75 13.083 L 7.75 3.417 Q 7.75 3.417 7.75 3.417 Q 7.75 3.417 7.75 3.417 Z" stroke-linecap="round" />
</g>
<g transform="matrix(NaN NaN NaN NaN 0 0)"  >
<path style="stroke: none; stroke-width: 1; stroke-dasharray: none; stroke-linecap: butt; stroke-dashoffset: 0; stroke-linejoin: miter; stroke-miterlimit: 4; fill: rgb(0,0,0); fill-rule: nonzero; opacity: 1;"  transform=" translate(-9.58, -10)" d="M 7.75 14.833 Q 7.021 14.833 6.51 14.323 Q 6 13.812 6 13.083 L 6 3.417 Q 6 2.688 6.51 2.177 Q 7.021 1.667 7.75 1.667 L 14.917 1.667 Q 15.646 1.667 16.156 2.177 Q 16.667 2.688 16.667 3.417 L 16.667 13.083 Q 16.667 13.812 16.156 14.323 Q 15.646 14.833 14.917 14.833 Z M 7.75 13.083 L 14.917 13.083 Q 14.917 13.083 14.917 13.083 Q 14.917 13.083 14.917 13.083 L 14.917 3.417 Q 14.917 3.417 14.917 3.417 Q 14.917 3.417 14.917 3.417 L 7.75 3.417 Q 7.75 3.417 7.75 3.417 Q 7.75 3.417 7.75 3.417 L 7.75 13.083 Q 7.75 13.083 7.75 13.083 Q 7.75 13.083 7.75 13.083 Z M 4.25 18.333 Q 3.521 18.333 3.01 17.823 Q 2.5 17.312 2.5 16.583 L 2.5 5.062 L 4.25 5.062 L 4.25 16.583 Q 4.25 16.583 4.25 16.583 Q 4.25 16.583 4.25 16.583 L 13.271 16.583 L 13.271 18.333 Z M 7.75 3.417 Q 7.75 3.417 7.75 3.417 Q 7.75 3.417 7.75 3.417 L 7.75 13.083 Q 7.75 13.083 7.75 13.083 Q 7.75 13.083 7.75 13.083 Q 7.75 13.083 7.75 13.083 Q 7.75 13.083 7.75 13.083 L 7.75 3.417 Q 7.75 3.417 7.75 3.417 Q 7.75 3.417 7.75 3.417 Z" stroke-linecap="round" />
</g>
<g transform="matrix(NaN NaN NaN NaN 0 0)"  >
<path style="stroke: none; stroke-width: 1; stroke-dasharray: none; stroke-linecap: butt; stroke-dashoffset: 0; stroke-linejoin: miter; stroke-miterlimit: 4; fill: rgb(0,0,0); fill-rule: nonzero; opacity: 1;"  transform=" translate(-9.58, -10)" d="M 7.75 14.833 Q 7.021 14.833 6.51 14.323 Q 6 13.812 6 13.083 L 6 3.417 Q 6 2.688 6.51 2.177 Q 7.021 1.667 7.75 1.667 L 14.917 1.667 Q 15.646 1.667 16.156 2.177 Q 16.667 2.688 16.667 3.417 L 16.667 13.083 Q 16.667 13.812 16.156 14.323 Q 15.646 14.833 14.917 14.833 Z M 7.75 13.083 L 14.917 13.083 Q 14.917 13.083 14.917 13.083 Q 14.917 13.083 14.917 13.083 L 14.917 3.417 Q 14.917 3.417 14.917 3.417 Q 14.917 3.417 14.917 3.417 L 7.75 3.417 Q 7.75 3.417 7.75 3.417 Q 7.75 3.417 7.75 3.417 L 7.75 13.083 Q 7.75 13.083 7.75 13.083 Q 7.75 13.083 7.75 13.083 Z M 4.25 18.333 Q 3.521 18.333 3.01 17.823 Q 2.5 17.312 2.5 16.583 L 2.5 5.062 L 4.25 5.062 L 4.25 16.583 Q 4.25 16.583 4.25 16.583 Q 4.25 16.583 4.25 16.583 L 13.271 16.583 L 13.271 18.333 Z M 7.75 3.417 Q 7.75 3.417 7.75 3.417 Q 7.75 3.417 7.75 3.417 L 7.75 13.083 Q 7.75 13.083 7.75 13.083 Q 7.75 13.083 7.75 13.083 Q 7.75 13.083 7.75 13.083 Q 7.75 13.083 7.75 13.083 L 7.75 3.417 Q 7.75 3.417 7.75 3.417 Q 7.75 3.417 7.75 3.417 Z" stroke-linecap="round" />
</g>
<g transform="matrix(53.73 0 0 53.73 540 540)" id="db028ede-36a9-4ee4-899e-cba56ae506af"  >
<path style="stroke: rgb(255,255,255); stroke-width: 0; stroke-dasharray: none; stroke-linecap: butt; stroke-dashoffset: 0; stroke-linejoin: miter; stroke-miterlimit: 4; fill: rgb(255,255,255); fill-rule: nonzero; opacity: 1;" vector-effect="non-scaling-stroke"  transform=" translate(-9.58, -10)" d="M 7.75 14.833 Q 7.021 14.833 6.51 14.323 Q 6 13.812 6 13.083 L 6 3.417 Q 6 2.688 6.51 2.177 Q 7.021 1.667 7.75 1.667 L 14.917 1.667 Q 15.646 1.667 16.156 2.177 Q 16.667 2.688 16.667 3.417 L 16.667 13.083 Q 16.667 13.812 16.156 14.323 Q 15.646 14.833 14.917 14.833 Z M 7.75 13.083 L 14.917 13.083 Q 14.917 13.083 14.917 13.083 Q 14.917 13.083 14.917 13.083 L 14.917 3.417 Q 14.917 3.417 14.917 3.417 Q 14.917 3.417 14.917 3.417 L 7.75 3.417 Q 7.75 3.417 7.75 3.417 Q 7.75 3.417 7.75 3.417 L 7.75 13.083 Q 7.75 13.083 7.75 13.083 Q 7.75 13.083 7.75 13.083 Z M 4.25 18.333 Q 3.521 18.333 3.01 17.823 Q 2.5 17.312 2.5 16.583 L 2.5 5.062 L 4.25 5.062 L 4.25 16.583 Q 4.25 16.583 4.25 16.583 Q 4.25 16.583 4.25 16.583 L 13.271 16.583 L 13.271 18.333 Z M 7.75 3.417 Q 7.75 3.417 7.75 3.417 Q 7.75 3.417 7.75 3.417 L 7.75 13.083 Q 7.75 13.083 7.75 13.083 Q 7.75 13.083 7.75 13.083 Q 7.75 13.083 7.75 13.083 Q 7.75 13.083 7.75 13.083 L 7.75 3.417 Q 7.75 3.417 7.75 3.417 Q 7.75 3.417 7.75 3.417 Z" stroke-linecap="round" />
</g>
</svg>