<svg width="19" height="19" viewBox="0 0 19 19" fill="none" xmlns="http://www.w3.org/2000/svg">
<path d="M4.31745 2.32642C3.89134 2.32642 3.54831 2.66945 3.54831 3.09556V15.4019C3.54831 15.7864 3.93288 16.171 4.31745 16.171H11.2398C11.6243 16.171 12.0089 15.7864 12.0089 15.4019V11.5561H12.3935C12.778 11.5561 12.778 11.9407 12.778 11.9407V13.479C12.778 14.2481 13.1626 14.6327 13.9318 14.6327C14.7009 14.6327 15.0855 14.2481 15.0855 13.479C15.0855 12.5816 15.0855 10.0179 15.0855 9.24871C15.0855 8.47956 13.5472 7.71042 13.5472 6.94128V4.63385H12.778L12.0089 3.8647V3.09556C12.0089 2.66945 11.6659 2.32642 11.2398 2.32642H4.31745ZM5.0866 3.8647H10.4706V6.94128H5.0866V3.8647ZM12.0089 6.17213H12.778C12.778 6.17213 12.778 6.81306 12.778 7.32585C12.778 8.09499 14.3163 8.86414 14.3163 9.63328V13.479C14.3163 13.8636 13.9318 13.8636 13.9318 13.8636C13.9318 13.8636 13.5472 13.8636 13.5472 13.479C13.5472 13.479 13.5472 11.9407 13.5472 11.5561C13.5472 11.1716 13.1626 10.787 12.778 10.787C12.5217 10.787 12.0089 10.787 12.0089 10.787V6.17213Z" fill="#656565"/>
</svg>
