<svg width="19" height="19" viewBox="0 0 19 19" fill="none" xmlns="http://www.w3.org/2000/svg">
<path d="M16.2392 3.25841C16.2291 3.11831 16.1689 2.98651 16.0696 2.88718C15.9703 2.78786 15.8385 2.72766 15.6984 2.71761C10.1966 2.39313 5.79084 4.05159 3.90884 7.15942C3.25743 8.22216 2.9362 9.45438 2.98586 10.6999C3.02913 11.8464 3.36082 13.0145 3.98094 14.161L11.2133 6.92146C11.3254 6.82948 11.4677 6.78247 11.6125 6.78958C11.7573 6.79669 11.8943 6.85742 11.9968 6.95995C12.0994 7.06247 12.1601 7.19947 12.1672 7.34429C12.1743 7.48912 12.1273 7.6314 12.0353 7.74349L4.79576 14.9758C5.94226 15.596 7.1104 15.9277 8.25691 15.9709H8.49486C9.66005 15.9759 10.8036 15.6563 11.7974 15.048C14.9052 13.166 16.5637 8.7602 16.2392 3.25841Z" fill="#669B56"/>
<path d="M4.20449 14.5504C4.12518 14.4206 4.05307 14.2908 3.98096 14.161L2.56045 15.5743C2.45213 15.6837 2.39136 15.8314 2.39136 15.9853C2.39136 16.1393 2.45213 16.287 2.56045 16.3963C2.67071 16.503 2.81808 16.5625 2.97146 16.5625C3.12484 16.5625 3.27221 16.503 3.38247 16.3963L4.79577 14.9758L4.4064 14.7523C4.32538 14.7003 4.25652 14.6314 4.20449 14.5504Z" fill="#669B56"/>
</svg>
